<svg width="346" height="91" viewBox="0 0 346 91" fill="none" xmlns="http://www.w3.org/2000/svg">
<circle cx="324.5" cy="69.5" r="21.5" fill="#D9D9D9"/>
<circle cx="324.5" cy="69.5" r="21.5" fill="url(#paint0_linear_257_106)"/>
<circle cx="324.5" cy="69.5" r="21.5" fill="url(#paint1_linear_257_106)"/>
<path d="M323.26 77.24C320.9 77.24 319.42 75.66 319.42 73.14V65.9C319.42 65.74 319.52 65.64 319.68 65.64H321.82C321.98 65.64 322.08 65.74 322.08 65.9V72.18C322.08 73.84 322.8 74.84 324.06 74.84C325.48 74.84 326.64 73.6 326.64 71.5V65.9C326.64 65.74 326.74 65.64 326.9 65.64H329.04C329.2 65.64 329.3 65.74 329.3 65.9V76.74C329.3 76.9 329.2 77 329.04 77H327.08C326.92 77 326.82 76.9 326.82 76.74L326.76 75.44C325.98 76.6 324.72 77.24 323.26 77.24Z" fill="white"/>
<rect x="219" y="17" width="124" height="34" rx="17" fill="white"/>
<path d="M235.224 26.218H239.088C239.172 26.218 239.228 26.274 239.228 26.358V27.044C239.228 27.114 239.2 27.17 239.144 27.226C238.234 27.814 237.884 28.57 237.884 29.83V38.846C237.884 38.944 237.828 39 237.73 39H236.876C236.792 39 236.736 38.944 236.736 38.846V29.844C236.736 28.612 237.016 27.884 237.786 27.198H235.224C235.126 27.198 235.07 27.142 235.07 27.044V26.358C235.07 26.274 235.126 26.218 235.224 26.218ZM243.359 39.154C241.371 39.154 240.181 37.922 240.181 35.85V31.37C240.181 31.272 240.237 31.23 240.321 31.23H241.175C241.273 31.23 241.329 31.272 241.329 31.37V35.71C241.329 37.236 242.057 38.104 243.359 38.104C244.675 38.104 245.403 37.25 245.403 35.71V28.304C245.403 28.206 245.445 28.164 245.543 28.164H246.397C246.495 28.164 246.551 28.206 246.551 28.304V35.85C246.551 37.908 245.347 39.154 243.359 39.154ZM251.3 39.126C249.69 39.126 248.654 38.048 248.654 36.242V34.24C248.654 32.574 249.438 31.468 250.866 31.118L252.112 31.846L253.372 31.118C254.688 31.454 255.43 32.42 255.43 33.75V38.846C255.43 38.944 255.374 39 255.276 39H254.422C254.338 39 254.282 38.944 254.282 38.846V33.694C254.282 32.91 253.932 32.364 253.274 32.168L252.168 32.812H252.07L250.964 32.168C250.208 32.406 249.802 33.176 249.802 34.352V36.158C249.802 37.39 250.418 38.09 251.426 38.09C251.734 38.09 251.958 38.034 252.21 37.894C252.308 37.852 252.364 37.852 252.406 37.936L252.7 38.566C252.742 38.65 252.728 38.734 252.672 38.776C252.336 39 251.888 39.126 251.3 39.126ZM260.425 31.076C262.637 31.076 264.037 32.644 264.037 35.108C264.037 37.586 262.665 39.154 260.481 39.154C258.451 39.154 257.163 37.796 257.163 35.654V34.828C257.163 34.744 257.219 34.688 257.303 34.688H260.621C260.705 34.688 260.761 34.744 260.761 34.828V35.514C260.761 35.612 260.705 35.668 260.621 35.668H258.297V35.71C258.297 37.166 259.123 38.118 260.439 38.118C261.923 38.118 262.861 36.928 262.861 35.094C262.861 33.26 261.895 32.112 260.355 32.112C259.403 32.112 258.591 32.602 258.241 33.386C258.199 33.47 258.157 33.498 258.045 33.47L257.303 33.246C257.191 33.218 257.177 33.148 257.205 33.05C257.695 31.818 258.941 31.076 260.425 31.076ZM268.392 39.154C266.768 39.154 265.816 38.09 265.816 36.284V31.37C265.816 31.286 265.872 31.23 265.956 31.23H266.81C266.908 31.23 266.964 31.286 266.964 31.37V35.948C266.964 37.32 267.594 38.104 268.7 38.104C269.974 38.104 270.982 37.096 270.982 35.444V31.37C270.982 31.286 271.038 31.23 271.122 31.23H271.976C272.074 31.23 272.13 31.286 272.13 31.37V38.846C272.13 38.944 272.074 39 271.976 39H271.22C271.122 39 271.066 38.944 271.066 38.846L271.024 37.628C270.52 38.58 269.554 39.154 268.392 39.154ZM275.619 39H274.765C274.681 39 274.625 38.944 274.625 38.846V31.37C274.625 31.286 274.681 31.23 274.765 31.23H275.619C275.717 31.23 275.773 31.286 275.773 31.37V38.846C275.773 38.944 275.717 39 275.619 39ZM283.875 39H280.613C278.849 39 277.813 38.146 277.813 36.704C277.813 35.808 278.331 35.08 279.185 34.814C278.303 34.59 277.757 33.918 277.757 33.022C277.757 31.846 278.625 31.104 279.983 31.104C280.557 31.104 281.061 31.23 281.453 31.482C281.523 31.524 281.537 31.608 281.495 31.692L281.201 32.322C281.145 32.406 281.103 32.406 281.005 32.364C280.711 32.196 280.431 32.126 280.109 32.126C279.381 32.126 278.905 32.546 278.905 33.176C278.905 33.904 279.451 34.324 280.403 34.324H281.495C281.579 34.324 281.635 34.38 281.635 34.464V35.136C281.635 35.234 281.579 35.29 281.495 35.29H280.599C279.577 35.29 278.975 35.766 278.975 36.578C278.975 37.488 279.605 37.992 280.753 37.992H282.727C282.811 37.992 282.867 37.936 282.867 37.838V31.37C282.867 31.286 282.923 31.23 283.021 31.23H283.875C283.959 31.23 284.015 31.286 284.015 31.37V38.846C284.015 38.944 283.959 39 283.875 39ZM283.441 27.954H280.403C279.871 27.954 279.535 28.234 279.535 28.668C279.535 29.074 279.801 29.326 280.221 29.326C280.557 29.326 280.809 29.116 281.033 28.64C281.075 28.57 281.145 28.528 281.215 28.528H281.579C281.649 28.528 281.705 28.57 281.733 28.626L281.929 28.962C282.055 29.172 282.237 29.256 282.573 29.256H283.441C283.539 29.256 283.595 29.312 283.595 29.41V29.942C283.595 30.04 283.539 30.096 283.441 30.096H282.615C282.097 30.096 281.677 29.9 281.453 29.494L281.369 29.354C281.089 29.886 280.627 30.194 279.983 30.194C279.087 30.194 278.499 29.606 278.499 28.696C278.499 27.702 279.199 27.086 280.305 27.086H283.441C283.539 27.086 283.595 27.142 283.595 27.226V27.814C283.595 27.898 283.539 27.954 283.441 27.954ZM288.899 39.154C287.275 39.154 286.323 38.09 286.323 36.284V31.37C286.323 31.286 286.379 31.23 286.463 31.23H287.317C287.415 31.23 287.471 31.286 287.471 31.37V35.948C287.471 37.32 288.101 38.104 289.207 38.104C290.481 38.104 291.489 37.096 291.489 35.444V31.37C291.489 31.286 291.545 31.23 291.629 31.23H292.483C292.581 31.23 292.637 31.286 292.637 31.37V38.846C292.637 38.944 292.581 39 292.483 39H291.727C291.629 39 291.573 38.944 291.573 38.846L291.531 37.628C291.027 38.58 290.061 39.154 288.899 39.154ZM297.372 39.126C295.762 39.126 294.796 38.048 294.796 36.242V34.282C294.796 32.336 296.084 31.076 298.1 31.076C300.13 31.076 301.432 32.336 301.432 34.282V38.846C301.432 38.944 301.376 39 301.278 39H300.424C300.34 39 300.284 38.944 300.284 38.846V34.422C300.284 32.994 299.458 32.126 298.1 32.126C296.77 32.126 295.944 32.994 295.944 34.422V36.158C295.944 37.39 296.49 38.09 297.498 38.09C297.806 38.09 298.03 38.034 298.282 37.894C298.38 37.838 298.436 37.852 298.478 37.936L298.772 38.566C298.814 38.65 298.8 38.734 298.744 38.776C298.408 39.014 297.946 39.126 297.372 39.126ZM300.778 30.096H295.57C295.472 30.096 295.416 30.04 295.416 29.942V29.312C295.416 29.214 295.472 29.158 295.57 29.158H300.246V27.842C300.246 27.758 300.302 27.702 300.4 27.702H301.142C301.24 27.702 301.296 27.758 301.296 27.842V29.578C301.296 29.9 301.1 30.096 300.778 30.096ZM307.453 39.154C306.305 39.154 305.339 38.58 304.835 37.628L304.779 38.846C304.779 38.958 304.723 39 304.625 39H303.869C303.785 39 303.729 38.944 303.729 38.846V31.37C303.729 31.286 303.785 31.23 303.869 31.23H304.723C304.821 31.23 304.877 31.286 304.877 31.37V35.444C304.877 37.096 305.871 38.104 307.145 38.104C308.251 38.104 308.895 37.278 308.895 35.836V31.37C308.895 31.286 308.951 31.23 309.035 31.23H309.889C309.987 31.23 310.043 31.286 310.043 31.37V36.172C310.043 38.02 309.063 39.154 307.453 39.154ZM316.192 39H315.338C315.24 39 315.184 38.944 315.184 38.846V33.652C315.184 32.7 314.68 32.126 313.84 32.126C313.21 32.126 312.748 32.462 312.524 33.092C312.482 33.176 312.412 33.218 312.328 33.19L311.6 32.98C311.516 32.952 311.474 32.868 311.502 32.784C311.88 31.692 312.748 31.076 313.91 31.076C315.408 31.076 316.332 32.084 316.332 33.694V38.846C316.332 38.944 316.276 39 316.192 39ZM318.799 31.23H322.047C323.923 31.23 324.959 32.196 324.959 33.974V38.846C324.959 38.944 324.903 39 324.805 39H323.965C323.881 39 323.811 38.944 323.811 38.846V33.974C323.811 32.854 323.139 32.238 321.949 32.238H319.807V38.846C319.807 38.944 319.751 39 319.653 39H318.813C318.729 39 318.659 38.944 318.659 38.846V31.37C318.659 31.286 318.715 31.23 318.799 31.23Z" fill="black"/>
<g filter="url(#filter0_d_257_106)">
<rect width="7.72814" height="7.72814" rx="3.86407" transform="matrix(-1 0 0 1 306.728 48)" fill="white"/>
</g>
<g filter="url(#filter1_d_257_106)">
<rect width="5.20809" height="5.20809" rx="2.60405" transform="matrix(-1 0 0 1 310.592 59.0879)" fill="white"/>
</g>
<circle cx="21.5" cy="55.5" r="21.5" fill="white"/>
<circle cx="21.5" cy="55.5" r="21.5" fill="url(#paint2_linear_257_106)"/>
<circle cx="21.5" cy="55.5" r="21.5" fill="url(#paint3_linear_257_106)"/>
<path d="M21.46 49.4C24.7 49.4 26.74 51.46 26.74 54.78C26.74 57.28 25.58 59.2 23.44 60.88C23.34 60.96 23.24 61 23.12 61H20.12C19.98 61 19.84 60.94 19.8 60.78L18.62 56.74H17.32C17.16 56.74 17.06 56.64 17.06 56.48V54.8C17.06 54.64 17.16 54.54 17.32 54.54H20.5C20.64 54.54 20.78 54.62 20.82 54.76L21.86 58.96C23.18 57.9 24.02 56.6 24.02 54.86C24.02 52.96 23 51.8 21.3 51.8C20.22 51.8 19.36 52.28 18.96 53.08C18.88 53.22 18.78 53.26 18.6 53.22L16.74 52.72C16.58 52.68 16.52 52.56 16.58 52.38C17.32 50.48 19.1 49.4 21.46 49.4Z" fill="white"/>
<rect width="155" height="34" rx="17" fill="white"/>
<path d="M20.298 22.154C18.31 22.154 17.12 20.922 17.12 18.85V14.37C17.12 14.272 17.176 14.23 17.26 14.23H18.114C18.212 14.23 18.268 14.272 18.268 14.37V18.71C18.268 20.236 18.996 21.104 20.298 21.104C21.614 21.104 22.342 20.25 22.342 18.71V14.37C22.342 14.272 22.384 14.23 22.482 14.23H23.336C23.434 14.23 23.49 14.272 23.49 14.37V18.85C23.49 20.908 22.286 22.154 20.298 22.154ZM24.7533 13.096H21.5333C20.5113 13.096 19.9373 12.564 19.9373 11.598V11.094C19.9373 10.996 19.9933 10.94 20.0773 10.94H20.8333C20.9173 10.94 20.9733 10.996 20.9733 11.094V11.444C20.9733 11.906 21.2393 12.158 21.7153 12.158H24.7533C24.8513 12.158 24.9073 12.214 24.9073 12.312V12.942C24.9073 13.04 24.8513 13.096 24.7533 13.096ZM28.1693 22.126C26.5593 22.126 25.5933 21.048 25.5933 19.242V17.282C25.5933 15.336 26.8813 14.076 28.8973 14.076C30.9273 14.076 32.2293 15.336 32.2293 17.282V21.846C32.2293 21.944 32.1733 22 32.0753 22H31.2213C31.1373 22 31.0813 21.944 31.0813 21.846V17.422C31.0813 15.994 30.2553 15.126 28.8973 15.126C27.5673 15.126 26.7413 15.994 26.7413 17.422V19.158C26.7413 20.39 27.2873 21.09 28.2953 21.09C28.6033 21.09 28.8273 21.034 29.0793 20.894C29.1773 20.838 29.2333 20.852 29.2753 20.936L29.5693 21.566C29.6113 21.65 29.5973 21.734 29.5413 21.776C29.2053 22.014 28.7433 22.126 28.1693 22.126ZM36.9056 22.126C35.2956 22.126 34.3296 21.048 34.3296 19.242V17.282C34.3296 15.336 35.6176 14.076 37.6336 14.076C39.6636 14.076 40.9656 15.336 40.9656 17.282V21.846C40.9656 21.944 40.9096 22 40.8116 22H39.9576C39.8736 22 39.8176 21.944 39.8176 21.846V17.422C39.8176 15.994 38.9916 15.126 37.6336 15.126C36.3036 15.126 35.4776 15.994 35.4776 17.422V19.158C35.4776 20.39 36.0236 21.09 37.0316 21.09C37.3396 21.09 37.5636 21.034 37.8156 20.894C37.9136 20.838 37.9696 20.852 38.0116 20.936L38.3056 21.566C38.3476 21.65 38.3336 21.734 38.2776 21.776C37.9416 22.014 37.4796 22.126 36.9056 22.126ZM40.3112 13.096H35.1032C35.0052 13.096 34.9492 13.04 34.9492 12.942V12.312C34.9492 12.214 35.0052 12.158 35.1032 12.158H39.7792V10.842C39.7792 10.758 39.8352 10.702 39.9332 10.702H40.6752C40.7732 10.702 40.8292 10.758 40.8292 10.842V12.578C40.8292 12.9 40.6332 13.096 40.3112 13.096ZM39.5692 8.924H41.8372C41.9212 8.924 41.9772 8.98 41.9772 9.078V9.638C41.9772 9.722 41.9212 9.778 41.8372 9.778H38.7852C38.6872 9.778 38.6312 9.722 38.6312 9.638V8.462H37.8472C37.7632 8.462 37.7072 8.406 37.7072 8.308V7.776C37.7072 7.692 37.7632 7.636 37.8472 7.636H38.9812C39.3592 7.636 39.5692 7.846 39.5692 8.224V8.924ZM49.8485 14.23H50.6885C50.7865 14.23 50.8285 14.286 50.8145 14.384L49.1345 21.86C49.1205 21.944 49.0505 22 48.9665 22H48.2805C48.2105 22 48.1405 21.944 48.1125 21.874L46.4885 16.204L44.8645 21.874C44.8365 21.944 44.7665 22 44.6965 22H44.0105C43.9265 22 43.8565 21.944 43.8425 21.86L42.1625 14.384C42.1485 14.286 42.1905 14.23 42.2885 14.23H43.1425C43.2265 14.23 43.2965 14.272 43.3105 14.356L44.4865 19.76L46.0825 14.356C46.0965 14.272 46.1525 14.23 46.2365 14.23H46.7545C46.8385 14.23 46.8945 14.272 46.9225 14.356L48.5185 19.732L49.6805 14.356C49.7085 14.272 49.7645 14.23 49.8485 14.23ZM56.1761 22H55.3221C55.2241 22 55.1681 21.944 55.1681 21.846V16.652C55.1681 15.7 54.6641 15.126 53.8241 15.126C53.1941 15.126 52.7321 15.462 52.5081 16.092C52.4661 16.176 52.3961 16.218 52.3121 16.19L51.5841 15.98C51.5001 15.952 51.4581 15.868 51.4861 15.784C51.8641 14.692 52.7321 14.076 53.8941 14.076C55.3921 14.076 56.3161 15.084 56.3161 16.694V21.846C56.3161 21.944 56.2601 22 56.1761 22ZM59.7631 22H58.9091C58.8251 22 58.7691 21.944 58.7691 21.846V14.37C58.7691 14.286 58.8251 14.23 58.9091 14.23H59.7631C59.8611 14.23 59.9171 14.286 59.9171 14.37V21.846C59.9171 21.944 59.8611 22 59.7631 22ZM63.2598 22H62.4058C62.3218 22 62.2658 21.944 62.2658 21.846V14.37C62.2658 14.286 62.3218 14.23 62.4058 14.23H63.1618C63.2598 14.23 63.3158 14.272 63.3158 14.37L63.3718 15.602C63.8758 14.636 64.8558 14.076 66.0178 14.076C67.6418 14.076 68.6218 15.154 68.6218 16.946V21.846C68.6218 21.944 68.5798 22 68.4818 22H67.6278C67.5298 22 67.4738 21.944 67.4738 21.846V17.282C67.4738 15.896 66.8438 15.126 65.7098 15.126C64.3798 15.126 63.4138 16.176 63.4138 17.772V21.846C63.4138 21.944 63.3578 22 63.2598 22ZM67.9694 13.096H62.7614C62.6634 13.096 62.6074 13.04 62.6074 12.942V12.312C62.6074 12.214 62.6634 12.158 62.7614 12.158H67.4374V10.842C67.4374 10.758 67.4934 10.702 67.5914 10.702H68.3334C68.4314 10.702 68.4874 10.758 68.4874 10.842V12.578C68.4874 12.9 68.2914 13.096 67.9694 13.096ZM68.3054 9.778H67.5914C67.5074 9.778 67.4514 9.722 67.4514 9.638V7.734C67.4514 7.636 67.5074 7.58 67.5914 7.58H68.3054C68.4034 7.58 68.4594 7.636 68.4594 7.734V9.638C68.4594 9.722 68.4034 9.778 68.3054 9.778ZM76.6878 22H73.4258C71.6618 22 70.6258 21.146 70.6258 19.704C70.6258 18.808 71.1438 18.08 71.9978 17.814C71.1158 17.59 70.5698 16.918 70.5698 16.022C70.5698 14.846 71.4378 14.104 72.7958 14.104C73.3698 14.104 73.8738 14.23 74.2658 14.482C74.3358 14.524 74.3498 14.608 74.3078 14.692L74.0138 15.322C73.9578 15.406 73.9158 15.406 73.8178 15.364C73.5238 15.196 73.2438 15.126 72.9218 15.126C72.1938 15.126 71.7178 15.546 71.7178 16.176C71.7178 16.904 72.2638 17.324 73.2158 17.324H74.3078C74.3918 17.324 74.4478 17.38 74.4478 17.464V18.136C74.4478 18.234 74.3918 18.29 74.3078 18.29H73.4118C72.3898 18.29 71.7878 18.766 71.7878 19.578C71.7878 20.488 72.4178 20.992 73.5658 20.992H75.5398C75.6238 20.992 75.6798 20.936 75.6798 20.838V14.37C75.6798 14.286 75.7358 14.23 75.8338 14.23H76.6878C76.7718 14.23 76.8278 14.286 76.8278 14.37V21.846C76.8278 21.944 76.7718 22 76.6878 22ZM81.614 22.154C80.172 22.154 79.094 21.37 78.646 20.068C78.604 19.97 78.646 19.9 78.744 19.872L79.514 19.662C79.626 19.634 79.682 19.662 79.71 19.76C80.06 20.628 80.732 21.118 81.6 21.118C82.93 21.118 83.77 19.956 83.77 18.08C83.77 16.232 82.93 15.112 81.558 15.112C80.648 15.112 79.976 15.602 79.626 16.484C79.584 16.582 79.542 16.61 79.43 16.582L78.66 16.386C78.548 16.358 78.534 16.274 78.562 16.19C79.01 14.86 80.088 14.076 81.572 14.076C83.644 14.076 84.946 15.616 84.946 18.08C84.946 20.572 83.658 22.154 81.614 22.154ZM86.5282 9.218H89.9722C90.0562 9.218 90.1122 9.274 90.1122 9.358V10.044C90.1122 10.142 90.0562 10.198 89.9722 10.198H87.4382C88.1802 10.842 88.4602 11.556 88.4602 12.76V21.846C88.4602 21.944 88.4042 22 88.3062 22H87.4522C87.3682 22 87.3122 21.944 87.3122 21.846V12.83C87.3122 11.57 86.9482 10.814 86.0522 10.226C85.9822 10.17 85.9542 10.128 85.9542 10.044V9.806C85.9542 9.456 86.1782 9.218 86.5282 9.218ZM91.7647 22H90.8967C90.8127 22 90.7567 21.944 90.7567 21.846V17.31C90.7567 15.322 91.9887 14.076 93.9347 14.076C95.9367 14.076 97.2107 15.322 97.2107 17.31V21.846C97.2107 21.944 97.1547 22 97.0707 22H96.2167C96.1187 22 96.0627 21.944 96.0627 21.846V17.464C96.0627 15.994 95.2787 15.126 93.9347 15.126C92.6327 15.126 91.8767 15.98 91.8767 17.464V18.066H94.2567C94.3407 18.066 94.3967 18.122 94.3967 18.206V18.92C94.3967 19.018 94.3407 19.074 94.2567 19.074H91.9047V21.846C91.9047 21.944 91.8487 22 91.7647 22ZM101.958 22.126C100.348 22.126 99.312 21.048 99.312 19.242V17.24C99.312 15.574 100.096 14.468 101.524 14.118L102.77 14.846L104.03 14.118C105.346 14.454 106.088 15.42 106.088 16.75V21.846C106.088 21.944 106.032 22 105.934 22H105.08C104.996 22 104.94 21.944 104.94 21.846V16.694C104.94 15.91 104.59 15.364 103.932 15.168L102.826 15.812H102.728L101.622 15.168C100.866 15.406 100.46 16.176 100.46 17.352V19.158C100.46 20.39 101.076 21.09 102.084 21.09C102.392 21.09 102.616 21.034 102.868 20.894C102.966 20.852 103.022 20.852 103.064 20.936L103.358 21.566C103.4 21.65 103.386 21.734 103.33 21.776C102.994 22 102.546 22.126 101.958 22.126ZM110.691 22.154C109.263 22.154 108.241 21.51 107.779 20.152C107.737 20.04 107.793 19.97 107.877 19.956L108.633 19.788C108.731 19.76 108.773 19.788 108.815 19.886C109.151 20.726 109.767 21.146 110.691 21.146C111.629 21.146 112.203 20.684 112.203 19.942C112.203 19.312 111.797 18.836 110.775 18.598L110.299 18.486C108.787 18.136 108.059 17.338 108.059 16.19C108.059 14.888 109.039 14.076 110.579 14.076C111.895 14.076 112.833 14.664 113.267 15.91C113.295 15.994 113.253 16.064 113.155 16.092L112.455 16.246C112.371 16.26 112.301 16.232 112.273 16.148C111.979 15.42 111.377 15.07 110.579 15.07C109.711 15.07 109.207 15.476 109.207 16.134C109.207 16.764 109.669 17.17 110.719 17.436L111.167 17.548C112.651 17.926 113.365 18.696 113.365 19.9C113.365 21.286 112.329 22.154 110.691 22.154ZM117.681 14.076C119.725 14.076 121.027 15.434 121.027 17.618C121.027 19.438 120.145 20.81 118.549 21.93C118.479 21.972 118.423 22 118.367 22H117.135C117.065 22 116.981 21.972 116.953 21.874L115.945 18.626H114.937C114.853 18.626 114.797 18.57 114.797 18.486V17.8C114.797 17.702 114.853 17.646 114.937 17.646H116.715C116.785 17.646 116.869 17.688 116.897 17.772L117.849 21.132C119.109 20.236 119.851 19.13 119.851 17.646C119.851 16.092 118.997 15.126 117.625 15.126C116.659 15.126 115.861 15.602 115.511 16.372C115.469 16.456 115.427 16.484 115.315 16.456L114.573 16.26C114.475 16.232 114.447 16.162 114.475 16.064C114.951 14.818 116.169 14.076 117.681 14.076ZM125.52 14.076C127.732 14.076 129.132 15.644 129.132 18.108C129.132 20.586 127.76 22.154 125.576 22.154C123.546 22.154 122.258 20.796 122.258 18.654V17.828C122.258 17.744 122.314 17.688 122.398 17.688H125.716C125.8 17.688 125.856 17.744 125.856 17.828V18.514C125.856 18.612 125.8 18.668 125.716 18.668H123.392V18.71C123.392 20.166 124.218 21.118 125.534 21.118C127.018 21.118 127.956 19.928 127.956 18.094C127.956 16.26 126.99 15.112 125.45 15.112C124.498 15.112 123.686 15.602 123.336 16.386C123.294 16.47 123.252 16.498 123.14 16.47L122.398 16.246C122.286 16.218 122.272 16.148 122.3 16.05C122.79 14.818 124.036 14.076 125.52 14.076ZM136.707 22H133.445C131.681 22 130.645 21.146 130.645 19.704C130.645 18.808 131.163 18.08 132.017 17.814C131.135 17.59 130.589 16.918 130.589 16.022C130.589 14.846 131.457 14.104 132.815 14.104C133.389 14.104 133.893 14.23 134.285 14.482C134.355 14.524 134.369 14.608 134.327 14.692L134.033 15.322C133.977 15.406 133.935 15.406 133.837 15.364C133.543 15.196 133.263 15.126 132.941 15.126C132.213 15.126 131.737 15.546 131.737 16.176C131.737 16.904 132.283 17.324 133.235 17.324H134.327C134.411 17.324 134.467 17.38 134.467 17.464V18.136C134.467 18.234 134.411 18.29 134.327 18.29H133.431C132.409 18.29 131.807 18.766 131.807 19.578C131.807 20.488 132.437 20.992 133.585 20.992H135.559C135.643 20.992 135.699 20.936 135.699 20.838V14.37C135.699 14.286 135.755 14.23 135.853 14.23H136.707C136.791 14.23 136.847 14.286 136.847 14.37V21.846C136.847 21.944 136.791 22 136.707 22Z" fill="black"/>
<g filter="url(#filter2_d_257_106)">
<rect x="34.8633" y="32" width="7.72814" height="7.72814" rx="3.86407" fill="white"/>
</g>
<g filter="url(#filter3_d_257_106)">
<rect x="31" y="43.0879" width="5.20809" height="5.20809" rx="2.60405" fill="white"/>
</g>
<defs>
<filter id="filter0_d_257_106" x="282.2" y="31.1997" width="41.3287" height="41.3291" filterUnits="userSpaceOnUse" color-interpolation-filters="sRGB">
<feFlood flood-opacity="0" result="BackgroundImageFix"/>
<feColorMatrix in="SourceAlpha" type="matrix" values="0 0 0 0 0 0 0 0 0 0 0 0 0 0 0 0 0 0 127 0" result="hardAlpha"/>
<feOffset/>
<feGaussianBlur stdDeviation="8.40015"/>
<feComposite in2="hardAlpha" operator="out"/>
<feColorMatrix type="matrix" values="0 0 0 0 0.992157 0 0 0 0 0.545098 0 0 0 0 0.878431 0 0 0 0.4 0"/>
<feBlend mode="normal" in2="BackgroundImageFix" result="effect1_dropShadow_257_106"/>
<feBlend mode="normal" in="SourceGraphic" in2="effect1_dropShadow_257_106" result="shape"/>
</filter>
<filter id="filter1_d_257_106" x="288.584" y="42.2876" width="38.8087" height="38.8086" filterUnits="userSpaceOnUse" color-interpolation-filters="sRGB">
<feFlood flood-opacity="0" result="BackgroundImageFix"/>
<feColorMatrix in="SourceAlpha" type="matrix" values="0 0 0 0 0 0 0 0 0 0 0 0 0 0 0 0 0 0 127 0" result="hardAlpha"/>
<feOffset/>
<feGaussianBlur stdDeviation="8.40015"/>
<feComposite in2="hardAlpha" operator="out"/>
<feColorMatrix type="matrix" values="0 0 0 0 0.992157 0 0 0 0 0.545098 0 0 0 0 0.878431 0 0 0 0.4 0"/>
<feBlend mode="normal" in2="BackgroundImageFix" result="effect1_dropShadow_257_106"/>
<feBlend mode="normal" in="SourceGraphic" in2="effect1_dropShadow_257_106" result="shape"/>
</filter>
<filter id="filter2_d_257_106" x="18.063" y="15.1997" width="41.3286" height="41.3291" filterUnits="userSpaceOnUse" color-interpolation-filters="sRGB">
<feFlood flood-opacity="0" result="BackgroundImageFix"/>
<feColorMatrix in="SourceAlpha" type="matrix" values="0 0 0 0 0 0 0 0 0 0 0 0 0 0 0 0 0 0 127 0" result="hardAlpha"/>
<feOffset/>
<feGaussianBlur stdDeviation="8.40015"/>
<feComposite in2="hardAlpha" operator="out"/>
<feColorMatrix type="matrix" values="0 0 0 0 0.992157 0 0 0 0 0.545098 0 0 0 0 0.878431 0 0 0 0.4 0"/>
<feBlend mode="normal" in2="BackgroundImageFix" result="effect1_dropShadow_257_106"/>
<feBlend mode="normal" in="SourceGraphic" in2="effect1_dropShadow_257_106" result="shape"/>
</filter>
<filter id="filter3_d_257_106" x="14.1997" y="26.2876" width="38.8086" height="38.8086" filterUnits="userSpaceOnUse" color-interpolation-filters="sRGB">
<feFlood flood-opacity="0" result="BackgroundImageFix"/>
<feColorMatrix in="SourceAlpha" type="matrix" values="0 0 0 0 0 0 0 0 0 0 0 0 0 0 0 0 0 0 127 0" result="hardAlpha"/>
<feOffset/>
<feGaussianBlur stdDeviation="8.40015"/>
<feComposite in2="hardAlpha" operator="out"/>
<feColorMatrix type="matrix" values="0 0 0 0 0.992157 0 0 0 0 0.545098 0 0 0 0 0.878431 0 0 0 0.4 0"/>
<feBlend mode="normal" in2="BackgroundImageFix" result="effect1_dropShadow_257_106"/>
<feBlend mode="normal" in="SourceGraphic" in2="effect1_dropShadow_257_106" result="shape"/>
</filter>
<linearGradient id="paint0_linear_257_106" x1="324.32" y1="55.6777" x2="319.131" y2="79.4148" gradientUnits="userSpaceOnUse">
<stop stop-color="#3698FB"/>
<stop offset="1" stop-color="#60F8FF"/>
</linearGradient>
<linearGradient id="paint1_linear_257_106" x1="336.497" y1="56.4282" x2="313.479" y2="80.9671" gradientUnits="userSpaceOnUse">
<stop stop-color="#21D032"/>
<stop offset="1" stop-color="#4CDDC1"/>
</linearGradient>
<linearGradient id="paint2_linear_257_106" x1="33.4975" y1="42.4282" x2="10.4793" y2="66.9671" gradientUnits="userSpaceOnUse">
<stop stop-color="#21D032"/>
<stop offset="1" stop-color="#4CDDC1"/>
</linearGradient>
<linearGradient id="paint3_linear_257_106" x1="21.32" y1="41.6777" x2="16.1311" y2="65.4148" gradientUnits="userSpaceOnUse">
<stop stop-color="#3698FB"/>
<stop offset="1" stop-color="#60F8FF"/>
</linearGradient>
</defs>
</svg>
