<svg width="16" height="16" viewBox="0 0 16 16" fill="none" xmlns="http://www.w3.org/2000/svg">
<path d="M13.8495 3.28921C13.6773 3.17026 13.4582 3.13971 13.2632 3.20991C13.1989 3.23266 12.0367 3.65191 11.2177 4.69711C10.5488 3.50631 9.73374 2.52611 8.11458 1.63366C7.92024 1.52576 7.68234 1.52576 7.48799 1.63366C5.87274 2.52091 5.07453 3.47576 4.38943 4.69516C3.56978 3.64476 2.39848 3.23136 2.33348 3.20926C2.13848 3.14231 1.92138 3.17156 1.75108 3.29051C0.714985 4.01136 0.650635 8.01926 0.650635 8.05891C0.650635 11.4721 1.42868 12.6733 1.51708 12.7987C1.59313 12.9066 1.70038 12.9885 1.82453 13.034C1.93698 13.0756 4.62408 14.0493 7.80064 14.0493C10.9772 14.0493 13.6636 13.0756 13.7761 13.034C13.9028 12.9879 14.0114 12.9027 14.0881 12.7922C14.1765 12.6635 14.95 11.4409 14.95 8.05891C14.95 8.01861 14.885 4.01071 13.8495 3.29051V3.28921Z" fill="white"/>
</svg>
