<svg width="21" height="21" viewBox="0 0 21 21" fill="none" xmlns="http://www.w3.org/2000/svg">
<g clip-path="url(#clip0_220_518)">
<path d="M14.9333 1.63574C13.9724 1.65069 13.0325 1.91892 12.2084 2.41336C11.3844 2.9078 10.7054 3.61093 10.24 4.45174C9.77461 3.61093 9.0956 2.9078 8.27154 2.41336C7.44748 1.91892 6.50754 1.65069 5.54665 1.63574C4.01486 1.70229 2.57168 2.37239 1.53238 3.49962C0.493087 4.62686 -0.0578331 6.1196 -1.93156e-05 7.65174C-1.93156e-05 11.5318 4.08403 15.7695 7.50931 18.6427C8.27409 19.2853 9.24103 19.6377 10.24 19.6377C11.2389 19.6377 12.2059 19.2853 12.9706 18.6427C16.3959 15.7695 20.48 11.5318 20.48 7.65174C20.5378 6.1196 19.9869 4.62686 18.9476 3.49962C17.9083 2.37239 16.4651 1.70229 14.9333 1.63574Z" fill="#21D032"/>
</g>
<defs>
<clipPath id="clip0_220_518">
<rect width="20.48" height="20.48" fill="white"/>
</clipPath>
</defs>
</svg>
