<svg width="21" height="21" viewBox="0 0 21 21" fill="none" xmlns="http://www.w3.org/2000/svg">
<g clip-path="url(#clip0_220_451)">
<path d="M10.24 0.0361328C7.98205 0.0386169 5.81726 0.936634 4.22055 2.53318C2.62385 4.12973 1.72561 6.29443 1.7229 8.5524C1.7229 10.7455 3.42103 14.1776 6.77037 18.7531C7.1691 19.2994 7.69116 19.7438 8.29408 20.0501C8.897 20.3565 9.56373 20.5162 10.24 20.5162C10.9163 20.5162 11.583 20.3565 12.186 20.0501C12.7889 19.7438 13.3109 19.2994 13.7097 18.7531C17.059 14.1776 18.7571 10.7455 18.7571 8.5524C18.7544 6.29443 17.8562 4.12973 16.2595 2.53318C14.6628 0.936634 12.498 0.0386169 10.24 0.0361328ZM10.24 11.947C9.56493 11.947 8.90499 11.7468 8.34368 11.3717C7.78236 10.9966 7.34486 10.4636 7.08651 9.83985C6.82816 9.21615 6.76057 8.52984 6.89227 7.86772C7.02398 7.2056 7.34907 6.5974 7.82643 6.12004C8.30379 5.64267 8.91199 5.31758 9.57411 5.18588C10.2362 5.05418 10.9225 5.12177 11.5462 5.38012C12.17 5.63847 12.703 6.07596 13.0781 6.63728C13.4532 7.1986 13.6534 7.85853 13.6534 8.53363C13.6534 9.4389 13.2937 10.3071 12.6536 10.9472C12.0135 11.5873 11.1453 11.947 10.24 11.947Z" fill="black"/>
</g>
<defs>
<clipPath id="clip0_220_451">
<rect width="20.48" height="20.48" fill="white"/>
</clipPath>
</defs>
</svg>
