<svg width="116" height="43" viewBox="0 0 116 43" fill="none" xmlns="http://www.w3.org/2000/svg">
<path d="M56.8076 30H54.3905C54.2085 30 54.0786 29.922 54.0006 29.7401L46.5413 11.3127C46.4373 11.0788 46.5673 10.9228 46.8012 10.9228H50.076C50.2579 10.9228 50.4139 11.0008 50.4659 11.1828L55.638 25.1397L60.7842 11.1828C60.8361 11.0008 60.9921 10.9228 61.174 10.9228H64.3969C64.6308 10.9228 64.7607 11.0788 64.6568 11.3127L57.1975 29.7401C57.1195 29.922 56.9895 30 56.8076 30ZM70.4842 30H67.6512C67.4433 30 67.3133 29.87 67.3133 29.6621V11.2607C67.3133 11.0528 67.4433 10.9228 67.6512 10.9228H70.4842C70.6921 10.9228 70.822 11.0528 70.822 11.2607V29.6621C70.822 29.87 70.6921 30 70.4842 30ZM82.126 30H75.3164C75.1085 30 74.9785 29.87 74.9785 29.6621V11.2607C74.9785 11.0528 75.1085 10.9228 75.3164 10.9228H81.866C86.4404 10.9228 88.4937 13.0021 88.4937 15.8351C88.4937 17.7064 87.584 19.2918 85.8686 19.9936C88.2598 20.6434 89.4553 22.3587 89.4553 24.542C89.4553 27.8948 87.2721 30 82.126 30ZM81.7361 14.1977H78.4873V18.6161H81.7361C83.7374 18.6161 84.907 17.8624 84.907 16.4069C84.907 14.9774 83.7374 14.1977 81.7361 14.1977ZM82.2299 21.7869H78.4873V26.7252H82.2299C84.5691 26.7252 85.8166 25.8415 85.8166 24.2301C85.8166 22.6446 84.5691 21.7869 82.2299 21.7869ZM95.9672 30H93.1342C92.9263 30 92.7963 29.87 92.7963 29.6621V11.2607C92.7963 11.0528 92.9263 10.9228 93.1342 10.9228H95.9672C96.1751 10.9228 96.3051 11.0528 96.3051 11.2607V29.6621C96.3051 29.87 96.1751 30 95.9672 30ZM108.545 30H105.712C105.504 30 105.374 29.87 105.374 29.6621V14.2237H99.4739C99.266 14.2237 99.162 14.0937 99.162 13.8858V11.2607C99.162 11.0528 99.266 10.9228 99.4739 10.9228H114.756C114.964 10.9228 115.094 11.0528 115.094 11.2607V13.8858C115.094 14.0937 114.964 14.2237 114.756 14.2237H108.883V29.6621C108.883 29.87 108.753 30 108.545 30Z" fill="black"/>
<g filter="url(#filter0_i_220_55)">
<path d="M23.2109 3.62964C27.2627 0.399019 33.1972 3.68312 32.6119 8.83203C32.3145 11.4485 33.8128 13.9382 36.264 14.9004C41.0877 16.7941 41.2108 23.5756 36.4591 25.6431C34.0445 26.6938 32.6375 29.2362 33.0298 31.8401C33.8017 36.9644 27.9903 40.4618 23.8239 37.3804C21.7067 35.8146 18.8014 35.8674 16.7424 37.5091C12.6907 40.7397 6.75609 37.4556 7.34143 32.3067C7.63887 29.6902 6.14054 27.2005 3.68933 26.2383C-1.13436 24.3446 -1.25752 17.5631 3.49423 15.4956C5.90888 14.4449 7.31582 11.9025 6.92357 9.29857C6.15165 4.17431 11.963 0.676884 16.1295 3.75825C18.2467 5.32408 21.1519 5.27131 23.2109 3.62964Z" fill="url(#paint0_linear_220_55)"/>
</g>
<g filter="url(#filter1_d_220_55)">
<rect x="25.2678" y="17.6553" width="1.57233" height="3.43054" rx="0.714697" transform="rotate(-16.4094 25.2678 17.6553)" fill="white"/>
<rect x="28.5583" y="16.6865" width="1.57233" height="3.43054" rx="0.714697" transform="rotate(-16.4094 28.5583 16.6865)" fill="white"/>
</g>
<defs>
<filter id="filter0_i_220_55" x="0" y="2.3457" width="39.9534" height="36.4473" filterUnits="userSpaceOnUse" color-interpolation-filters="sRGB">
<feFlood flood-opacity="0" result="BackgroundImageFix"/>
<feBlend mode="normal" in="SourceGraphic" in2="BackgroundImageFix" result="shape"/>
<feColorMatrix in="SourceAlpha" type="matrix" values="0 0 0 0 0 0 0 0 0 0 0 0 0 0 0 0 0 0 127 0" result="hardAlpha"/>
<feOffset/>
<feGaussianBlur stdDeviation="3.57348"/>
<feComposite in2="hardAlpha" operator="arithmetic" k2="-1" k3="1"/>
<feColorMatrix type="matrix" values="0 0 0 0 1 0 0 0 0 1 0 0 0 0 1 0 0 0 1 0"/>
<feBlend mode="normal" in2="shape" result="effect1_innerShadow_220_55"/>
</filter>
<filter id="filter1_d_220_55" x="22.5816" y="13.5563" width="11.1402" height="10.076" filterUnits="userSpaceOnUse" color-interpolation-filters="sRGB">
<feFlood flood-opacity="0" result="BackgroundImageFix"/>
<feColorMatrix in="SourceAlpha" type="matrix" values="0 0 0 0 0 0 0 0 0 0 0 0 0 0 0 0 0 0 127 0" result="hardAlpha"/>
<feOffset/>
<feGaussianBlur stdDeviation="1.42939"/>
<feComposite in2="hardAlpha" operator="out"/>
<feColorMatrix type="matrix" values="0 0 0 0 1 0 0 0 0 1 0 0 0 0 1 0 0 0 1 0"/>
<feBlend mode="normal" in2="BackgroundImageFix" result="effect1_dropShadow_220_55"/>
<feBlend mode="normal" in="SourceGraphic" in2="effect1_dropShadow_220_55" result="shape"/>
</filter>
<linearGradient id="paint0_linear_220_55" x1="28.9051" y1="3.92716" x2="6.99963" y2="28.8701" gradientUnits="userSpaceOnUse">
<stop stop-color="#3698FB"/>
<stop offset="1" stop-color="#60F8FF"/>
</linearGradient>
</defs>
</svg>
